<?xml version="1.0" encoding="utf-8"?>
<!-- Generator: Adobe Illustrator 15.1.0, SVG Export Plug-In  -->
<!DOCTYPE svg PUBLIC "-//W3C//DTD SVG 1.1//EN" "http://www.w3.org/Graphics/SVG/1.1/DTD/svg11.dtd" [
	<!ENTITY ns_flows "http://ns.adobe.com/Flows/1.0/">
]>
<svg version="1.1"
	 xmlns="http://www.w3.org/2000/svg" xmlns:xlink="http://www.w3.org/1999/xlink" xmlns:a="http://ns.adobe.com/AdobeSVGViewerExtensions/3.0/"
	 x="0px" y="0px" width="185px" height="40px" viewBox="-0.06 0 185 40" overflow="visible" enable-background="new -0.06 0 185 40"
	 xml:space="preserve">
<defs>
</defs>
<rect fill="#B35B3F" width="185" height="40"/>
<polygon opacity="0.14" fill="#F2F2F2" enable-background="new    " points="185,0.996 183.798,0 183.055,0 185,1.611 "/>
<polygon opacity="0.14" fill="#F2F2F2" enable-background="new    " points="185,4.475 179.594,0.001 178.85,0.001 185,5.089 "/>
<polygon opacity="0.14" fill="#F2F2F2" enable-background="new    " points="185,7.954 175.389,0.001 174.646,0.001 185,8.568 "/>
<polygon opacity="0.14" fill="#F2F2F2" enable-background="new    " points="185,11.432 171.186,0.001 170.441,0.001 185,12.046 "/>
<polygon opacity="0.14" fill="#F2F2F2" enable-background="new    " points="185,14.912 166.98,0.001 166.236,0.001 185,15.525 "/>
<polygon opacity="0.14" fill="#F2F2F2" enable-background="new    " points="185,18.391 162.774,0.001 162.032,0.001 185,19.003 "/>
<polygon opacity="0.14" fill="#F2F2F2" enable-background="new    " points="185,21.869 158.569,0 157.827,0 185,22.482 "/>
<polygon opacity="0.14" fill="#F2F2F2" enable-background="new    " points="185,25.348 154.367,0.001 153.624,0.001 185,25.961 "/>
<polygon opacity="0.14" fill="#F2F2F2" enable-background="new    " points="185,28.825 150.162,0.001 149.418,0.001 185,29.439 "/>
<polygon opacity="0.14" fill="#F2F2F2" enable-background="new    " points="185,32.305 145.957,0.001 145.213,0.001 185,32.919 "/>
<polygon opacity="0.14" fill="#F2F2F2" enable-background="new    " points="185,35.784 141.752,0 141.01,0 185,36.398 "/>
<polygon opacity="0.14" fill="#F2F2F2" enable-background="new    " points="185,39.262 137.548,0.001 136.806,0.001 185,39.877 "/>
<polygon opacity="0.14" fill="#F2F2F2" enable-background="new    " points="133.343,0 132.603,0 180.943,40 181.688,40 "/>
<polygon opacity="0.14" fill="#F2F2F2" enable-background="new    " points="129.142,0 128.397,0 176.741,40 177.482,40 "/>
<polygon opacity="0.14" fill="#F2F2F2" enable-background="new    " points="124.937,0 124.19,0 172.534,40 173.277,40 "/>
<polygon opacity="0.14" fill="#F2F2F2" enable-background="new    " points="120.729,0 119.987,0 168.329,40 169.073,40 "/>
<polygon opacity="0.14" fill="#F2F2F2" enable-background="new    " points="116.524,0 115.783,0 164.125,40 164.868,40 "/>
<polygon opacity="0.14" fill="#F2F2F2" enable-background="new    " points="112.319,0 111.579,0 159.921,40 160.664,40 "/>
<polygon opacity="0.14" fill="#F2F2F2" enable-background="new    " points="108.117,0 107.375,0 155.717,40 156.459,40 "/>
<polygon opacity="0.14" fill="#F2F2F2" enable-background="new    " points="103.913,0 103.17,0 151.513,40 152.255,40 "/>
<polygon opacity="0.14" fill="#F2F2F2" enable-background="new    " points="99.708,0 98.964,0 147.308,40 148.05,40 "/>
<polygon opacity="0.14" fill="#F2F2F2" enable-background="new    " points="95.503,0 94.76,0 143.104,40 143.849,40 "/>
<polygon opacity="0.14" fill="#F2F2F2" enable-background="new    " points="91.298,0 90.559,0 138.897,40 139.644,40 "/>
<polygon opacity="0.14" fill="#F2F2F2" enable-background="new    " points="87.094,0 86.354,0 134.692,40 135.438,40 "/>
<polygon opacity="0.14" fill="#F2F2F2" enable-background="new    " points="82.893,0 82.148,0 130.49,40 131.231,40 "/>
<polygon opacity="0.14" fill="#F2F2F2" enable-background="new    " points="78.686,0 77.943,0 126.285,40 127.026,40 "/>
<polygon opacity="0.14" fill="#F2F2F2" enable-background="new    " points="74.48,0 73.736,0 122.08,40 122.823,40 "/>
<polygon opacity="0.14" fill="#F2F2F2" enable-background="new    " points="70.277,0 69.534,0 117.877,40 118.619,40 "/>
<polygon opacity="0.14" fill="#F2F2F2" enable-background="new    " points="66.073,0 65.33,0 113.671,40 114.415,40 "/>
<polygon opacity="0.14" fill="#F2F2F2" enable-background="new    " points="61.867,0 61.127,0 109.468,40 110.209,40 "/>
<polygon opacity="0.14" fill="#F2F2F2" enable-background="new    " points="57.663,0 56.92,0 105.265,40 106.006,40 "/>
<polygon opacity="0.14" fill="#F2F2F2" enable-background="new    " points="53.46,0 52.717,0 101.06,40 101.801,40 "/>
<polygon opacity="0.14" fill="#F2F2F2" enable-background="new    " points="49.254,0 48.514,0 96.854,40 97.599,40 "/>
<polygon opacity="0.14" fill="#F2F2F2" enable-background="new    " points="45.051,0 44.309,0 92.649,40 93.394,40 "/>
<polygon opacity="0.14" fill="#F2F2F2" enable-background="new    " points="40.848,0 40.104,0 88.447,40 89.189,40 "/>
<polygon opacity="0.14" fill="#F2F2F2" enable-background="new    " points="36.641,0 35.898,0 84.241,40 84.984,40 "/>
<polygon opacity="0.14" fill="#F2F2F2" enable-background="new    " points="32.438,0 31.693,0 80.036,40 80.779,40 "/>
<polygon opacity="0.14" fill="#F2F2F2" enable-background="new    " points="28.23,0 27.49,0 75.832,40 76.574,40 "/>
<polygon opacity="0.14" fill="#F2F2F2" enable-background="new    " points="24.027,0 23.285,0 71.628,40 72.371,40 "/>
<polygon opacity="0.14" fill="#F2F2F2" enable-background="new    " points="19.823,0 19.082,0 67.423,40 68.166,40 "/>
<polygon opacity="0.14" fill="#F2F2F2" enable-background="new    " points="15.617,0 14.877,0 63.218,40 63.962,40 "/>
<polygon opacity="0.14" fill="#F2F2F2" enable-background="new    " points="11.414,0 10.671,0 59.014,40 59.756,40 "/>
<polygon opacity="0.14" fill="#F2F2F2" enable-background="new    " points="7.21,0 6.468,0 54.811,40 55.555,40 "/>
<polygon opacity="0.14" fill="#F2F2F2" enable-background="new    " points="3.006,0 2.264,0 50.605,40 51.348,40 "/>
<polygon opacity="0.14" fill="#F2F2F2" enable-background="new    " points="0.037,1.023 0.037,1.639 46.4,40 47.145,40 "/>
<polygon opacity="0.14" fill="#F2F2F2" enable-background="new    " points="0.037,4.502 0.037,5.116 42.195,40 42.938,40 "/>
<polygon opacity="0.14" fill="#F2F2F2" enable-background="new    " points="0.037,7.98 0.037,8.595 37.991,40 38.734,40 "/>
<polygon opacity="0.14" fill="#F2F2F2" enable-background="new    " points="0.037,11.46 0.037,12.075 33.787,39.999 34.53,39.999 
	"/>
<polygon opacity="0.14" fill="#F2F2F2" enable-background="new    " points="0.037,14.939 0.037,15.555 29.583,40 30.325,40 "/>
<polygon opacity="0.14" fill="#F2F2F2" enable-background="new    " points="0.037,18.417 0.037,19.031 25.378,40 26.122,40 "/>
<polygon opacity="0.14" fill="#F2F2F2" enable-background="new    " points="0.037,21.896 0.037,22.514 21.172,39.999 
	21.917,39.999 "/>
<polygon opacity="0.14" fill="#F2F2F2" enable-background="new    " points="0.037,25.375 0.037,25.988 16.97,40 17.712,40 "/>
<polygon opacity="0.14" fill="#F2F2F2" enable-background="new    " points="0.037,28.854 0.037,29.469 12.764,40 13.507,40 "/>
<polygon opacity="0.14" fill="#F2F2F2" enable-background="new    " points="0.037,32.332 0.037,32.945 8.562,40 9.307,40 "/>
<polygon opacity="0.14" fill="#F2F2F2" enable-background="new    " points="0.037,35.812 0.037,36.427 4.355,39.999 5.098,39.999 
	"/>
<polygon opacity="0.14" fill="#F2F2F2" enable-background="new    " points="0.037,39.291 0.037,39.904 0.15,40 0.895,40 "/>
<polygon fill="#FFFFFF" points="163.401,6.27 168.523,6.27 178.562,19.732 168.523,33.193 163.401,33.193 173.441,19.732 "/>
<polygon fill="#FFFFFF" points="153.497,6.27 158.619,6.27 168.659,19.732 158.618,33.193 153.497,33.193 163.537,19.732 "/>
<rect x="144.067" fill="#F2F2F2" width="1.572" height="40"/>
<path fill="#FFFFFF" d="M19.336,22.055c0,0.652-0.129,1.199-0.387,1.641c-0.258,0.443-0.6,0.803-1.027,1.07
	c-0.426,0.27-0.91,0.461-1.455,0.58c-0.545,0.117-1.102,0.176-1.674,0.176h-4.746V13.607h4.746c0.459,0,0.932,0.049,1.414,0.144
	c0.482,0.097,0.92,0.258,1.312,0.488c0.392,0.229,0.711,0.541,0.959,0.934c0.246,0.394,0.369,0.892,0.369,1.498
	c0,0.662-0.181,1.209-0.537,1.642c-0.359,0.432-0.832,0.742-1.414,0.934v0.033c0.336,0.057,0.651,0.16,0.951,0.312
	c0.297,0.151,0.555,0.346,0.772,0.581c0.219,0.235,0.394,0.511,0.521,0.824C19.271,21.309,19.336,21.662,19.336,22.055z
	 M16.072,17.059c0-0.404-0.154-0.699-0.463-0.884c-0.31-0.185-0.767-0.278-1.371-0.278h-1.414v2.457h1.547
	c0.539,0,0.957-0.108,1.254-0.328C15.922,17.807,16.072,17.484,16.072,17.059z M16.459,21.787c0-0.494-0.186-0.836-0.555-1.027
	c-0.371-0.189-0.865-0.285-1.482-0.285h-1.598v2.725h1.615c0.225,0,0.457-0.02,0.699-0.059c0.239-0.039,0.459-0.109,0.655-0.211
	c0.195-0.102,0.354-0.244,0.479-0.43C16.396,22.316,16.459,22.078,16.459,21.787z"/>
<path fill="#FFFFFF" d="M29.584,25.521l-0.926-2.338h-4.609l-0.875,2.338h-3.131l4.998-11.914h2.793l4.947,11.914H29.584z
	 M26.387,16.789l-1.514,4.089h2.996L26.387,16.789z"/>
<path fill="#FFFFFF" d="M41.615,25.521L36.82,17.73h-0.051l0.065,7.791h-2.793V13.607h3.281l4.778,7.774h0.051l-0.065-7.774h2.793
	v11.914H41.615L41.615,25.521z"/>
<path fill="#FFFFFF" d="M54.877,25.521l-4.426-5.485h-0.033v5.485h-2.811V13.607h2.811v4.848h0.049l4.258-4.848h3.603l-5.134,5.486
	l5.437,6.428H54.877z"/>
<path fill="#FFFFFF" d="M76.938,25.521h-2.844L71.74,17.46h-0.052l-2.354,8.062h-2.86L63.09,13.607h3.099l1.885,7.925h0.049
	l2.121-7.925h2.996l2.137,7.925h0.051l1.918-7.925h2.994L76.938,25.521z"/>
<path fill="#FFFFFF" d="M81.834,25.521V13.607h2.895v11.914H81.834L81.834,25.521z"/>
<path fill="#FFFFFF" d="M92.554,16.064v9.457h-2.878v-9.457h-3.365v-2.457h9.608v2.457H92.554z"/>
<path fill="#FFFFFF" d="M105.021,25.521v-4.98h-4.645v4.98H97.5V13.607h2.877v4.511h4.646v-4.511h2.877v11.914H105.021
	L105.021,25.521z"/>
<path fill="#FFFFFF" d="M124.837,22.99c-0.24,0.588-0.586,1.094-1.035,1.514c-0.447,0.42-0.988,0.748-1.623,0.984
	s-1.339,0.354-2.111,0.354c-0.787,0-1.492-0.117-2.121-0.354c-0.629-0.237-1.161-0.564-1.6-0.984s-0.773-0.926-1.011-1.514
	c-0.233-0.59-0.354-1.244-0.354-1.961v-7.422h2.86v7.187c0,0.325,0.042,0.634,0.126,0.925c0.084,0.293,0.213,0.553,0.387,0.783
	s0.404,0.412,0.69,0.547s0.631,0.201,1.035,0.201c0.403,0,0.749-0.066,1.035-0.201s0.519-0.316,0.698-0.547
	c0.179-0.23,0.308-0.49,0.387-0.783c0.078-0.291,0.117-0.6,0.117-0.925v-7.187h2.877v7.422
	C125.199,21.746,125.078,22.4,124.837,22.99z"/>
<path fill="#FFFFFF" d="M134.083,16.705c-0.247-0.314-0.568-0.562-0.967-0.749c-0.398-0.185-0.783-0.278-1.153-0.278
	c-0.19,0-0.385,0.018-0.581,0.051c-0.195,0.033-0.373,0.099-0.529,0.193c-0.156,0.096-0.289,0.219-0.396,0.37
	s-0.16,0.345-0.16,0.581c0,0.202,0.042,0.37,0.126,0.505c0.084,0.136,0.208,0.252,0.371,0.354c0.162,0.101,0.354,0.192,0.581,0.276
	c0.225,0.084,0.479,0.171,0.757,0.261c0.404,0.136,0.825,0.285,1.263,0.446c0.438,0.162,0.836,0.378,1.194,0.648
	c0.358,0.269,0.656,0.603,0.894,1.001c0.233,0.398,0.353,0.895,0.353,1.488c0,0.685-0.126,1.274-0.378,1.774
	s-0.592,0.912-1.018,1.236c-0.429,0.325-0.916,0.565-1.465,0.725c-0.551,0.156-1.117,0.234-1.699,0.234
	c-0.854,0-1.678-0.148-2.476-0.445c-0.797-0.297-1.458-0.721-1.985-1.271l1.886-1.92c0.292,0.358,0.676,0.66,1.153,0.899
	c0.477,0.242,0.949,0.363,1.422,0.363c0.213,0,0.42-0.022,0.623-0.068c0.201-0.045,0.377-0.116,0.528-0.219s0.271-0.235,0.361-0.403
	c0.09-0.169,0.135-0.369,0.135-0.604c0-0.226-0.056-0.414-0.168-0.572c-0.11-0.156-0.271-0.301-0.479-0.431
	c-0.207-0.127-0.465-0.244-0.773-0.353c-0.309-0.106-0.659-0.221-1.052-0.345c-0.382-0.124-0.755-0.27-1.119-0.438
	c-0.365-0.168-0.69-0.385-0.976-0.648c-0.287-0.264-0.518-0.583-0.69-0.959c-0.174-0.375-0.261-0.833-0.261-1.371
	c0-0.662,0.135-1.229,0.404-1.7c0.27-0.471,0.623-0.858,1.06-1.161c0.438-0.303,0.931-0.523,1.481-0.664
	c0.549-0.142,1.104-0.211,1.666-0.211c0.672,0,1.358,0.124,2.062,0.37c0.7,0.247,1.315,0.612,1.843,1.095L134.083,16.705z"/>
</svg>
