<?xml version="1.0" encoding="utf-8"?>
<!-- Generator: Adobe Illustrator 15.1.0, SVG Export Plug-In . SVG Version: 6.00 Build 0)  -->
<!DOCTYPE svg PUBLIC "-//W3C//DTD SVG 1.1//EN" "http://www.w3.org/Graphics/SVG/1.1/DTD/svg11.dtd">
<svg version="1.1" id="Layer_1" xmlns="http://www.w3.org/2000/svg" xmlns:xlink="http://www.w3.org/1999/xlink" x="0px" y="0px"
	 width="185px" height="40px" viewBox="-72.5 72.5 185 40" enable-background="new -72.5 72.5 185 40" xml:space="preserve">
<rect x="-72.5" y="72.5" fill="#B35B3F" width="185" height="40"/>
<polygon opacity="0.14" fill="#F2F2F2" enable-background="new    " points="112.5,73.496 111.298,72.5 110.555,72.5 112.5,74.111 
	"/>
<polygon opacity="0.14" fill="#F2F2F2" enable-background="new    " points="112.5,76.975 107.094,72.501 106.35,72.501 
	112.5,77.589 "/>
<polygon opacity="0.14" fill="#F2F2F2" enable-background="new    " points="112.5,80.454 102.889,72.501 102.146,72.501 
	112.5,81.068 "/>
<polygon opacity="0.14" fill="#F2F2F2" enable-background="new    " points="112.5,83.932 98.686,72.501 97.941,72.501 
	112.5,84.546 "/>
<polygon opacity="0.14" fill="#F2F2F2" enable-background="new    " points="112.5,87.412 94.48,72.501 93.736,72.501 112.5,88.026 
	"/>
<polygon opacity="0.14" fill="#F2F2F2" enable-background="new    " points="112.5,90.89 90.275,72.501 89.532,72.501 112.5,91.503 
	"/>
<polygon opacity="0.14" fill="#F2F2F2" enable-background="new    " points="112.5,94.369 86.07,72.5 85.327,72.5 112.5,94.982 "/>
<polygon opacity="0.14" fill="#F2F2F2" enable-background="new    " points="112.5,97.848 81.867,72.501 81.124,72.501 
	112.5,98.461 "/>
<polygon opacity="0.14" fill="#F2F2F2" enable-background="new    " points="112.5,101.325 77.662,72.501 76.918,72.501 
	112.5,101.939 "/>
<polygon opacity="0.14" fill="#F2F2F2" enable-background="new    " points="112.5,104.805 73.457,72.501 72.713,72.501 
	112.5,105.419 "/>
<polygon opacity="0.14" fill="#F2F2F2" enable-background="new    " points="112.5,108.284 69.252,72.5 68.51,72.5 112.5,108.898 
	"/>
<polygon opacity="0.14" fill="#F2F2F2" enable-background="new    " points="112.5,111.762 65.048,72.501 64.305,72.501 
	112.5,112.377 "/>
<polygon opacity="0.14" fill="#F2F2F2" enable-background="new    " points="60.843,72.5 60.102,72.5 108.443,112.5 109.188,112.5 
	"/>
<polygon opacity="0.14" fill="#F2F2F2" enable-background="new    " points="56.641,72.5 55.898,72.5 104.241,112.5 104.982,112.5 
	"/>
<polygon opacity="0.14" fill="#F2F2F2" enable-background="new    " points="52.436,72.5 51.691,72.5 100.034,112.5 100.777,112.5 
	"/>
<polygon opacity="0.14" fill="#F2F2F2" enable-background="new    " points="48.229,72.5 47.488,72.5 95.829,112.5 96.573,112.5 "/>
<polygon opacity="0.14" fill="#F2F2F2" enable-background="new    " points="44.025,72.5 43.283,72.5 91.625,112.5 92.368,112.5 "/>
<polygon opacity="0.14" fill="#F2F2F2" enable-background="new    " points="39.82,72.5 39.079,72.5 87.421,112.5 88.164,112.5 "/>
<polygon opacity="0.14" fill="#F2F2F2" enable-background="new    " points="35.617,72.5 34.875,72.5 83.217,112.5 83.959,112.5 "/>
<polygon opacity="0.14" fill="#F2F2F2" enable-background="new    " points="31.413,72.5 30.67,72.5 79.012,112.5 79.755,112.5 "/>
<polygon opacity="0.14" fill="#F2F2F2" enable-background="new    " points="27.208,72.5 26.464,72.5 74.807,112.5 75.55,112.5 "/>
<polygon opacity="0.14" fill="#F2F2F2" enable-background="new    " points="23.003,72.5 22.26,72.5 70.604,112.5 71.348,112.5 "/>
<polygon opacity="0.14" fill="#F2F2F2" enable-background="new    " points="18.798,72.5 18.059,72.5 66.398,112.5 67.143,112.5 "/>
<polygon opacity="0.14" fill="#F2F2F2" enable-background="new    " points="14.594,72.5 13.854,72.5 62.193,112.5 62.938,112.5 "/>
<polygon opacity="0.14" fill="#F2F2F2" enable-background="new    " points="10.393,72.5 9.648,72.5 57.99,112.5 58.732,112.5 "/>
<polygon opacity="0.14" fill="#F2F2F2" enable-background="new    " points="6.186,72.5 5.443,72.5 53.785,112.5 54.527,112.5 "/>
<polygon opacity="0.14" fill="#F2F2F2" enable-background="new    " points="1.98,72.5 1.236,72.5 49.58,112.5 50.323,112.5 "/>
<polygon opacity="0.14" fill="#F2F2F2" enable-background="new    " points="-2.223,72.5 -2.966,72.5 45.377,112.5 46.119,112.5 "/>
<polygon opacity="0.14" fill="#F2F2F2" enable-background="new    " points="-6.427,72.5 -7.17,72.5 41.171,112.5 41.915,112.5 "/>
<polygon opacity="0.14" fill="#F2F2F2" enable-background="new    " points="-10.633,72.5 -11.373,72.5 36.968,112.5 37.709,112.5 
	"/>
<polygon opacity="0.14" fill="#F2F2F2" enable-background="new    " points="-14.837,72.5 -15.58,72.5 32.764,112.5 33.506,112.5 
	"/>
<polygon opacity="0.14" fill="#F2F2F2" enable-background="new    " points="-19.04,72.5 -19.783,72.5 28.559,112.5 29.301,112.5 
	"/>
<polygon opacity="0.14" fill="#F2F2F2" enable-background="new    " points="-23.246,72.5 -23.986,72.5 24.354,112.5 25.098,112.5 
	"/>
<polygon opacity="0.14" fill="#F2F2F2" enable-background="new    " points="-27.449,72.5 -28.191,72.5 20.149,112.5 20.893,112.5 
	"/>
<polygon opacity="0.14" fill="#F2F2F2" enable-background="new    " points="-31.652,72.5 -32.396,72.5 15.947,112.5 16.689,112.5 
	"/>
<polygon opacity="0.14" fill="#F2F2F2" enable-background="new    " points="-35.859,72.5 -36.602,72.5 11.741,112.5 12.484,112.5 
	"/>
<polygon opacity="0.14" fill="#F2F2F2" enable-background="new    " points="-40.062,72.5 -40.807,72.5 7.536,112.5 8.279,112.5 "/>
<polygon opacity="0.14" fill="#F2F2F2" enable-background="new    " points="-44.27,72.5 -45.01,72.5 3.332,112.5 4.074,112.5 "/>
<polygon opacity="0.14" fill="#F2F2F2" enable-background="new    " points="-48.473,72.5 -49.215,72.5 -0.872,112.5 -0.129,112.5 
	"/>
<polygon opacity="0.14" fill="#F2F2F2" enable-background="new    " points="-52.677,72.5 -53.418,72.5 -5.077,112.5 -4.334,112.5 
	"/>
<polygon opacity="0.14" fill="#F2F2F2" enable-background="new    " points="-56.883,72.5 -57.623,72.5 -9.282,112.5 -8.538,112.5 
	"/>
<polygon opacity="0.14" fill="#F2F2F2" enable-background="new    " points="-61.086,72.5 -61.829,72.5 -13.486,112.5 
	-12.744,112.5 "/>
<polygon opacity="0.14" fill="#F2F2F2" enable-background="new    " points="-65.29,72.5 -66.032,72.5 -17.689,112.5 -16.945,112.5 
	"/>
<polygon opacity="0.14" fill="#F2F2F2" enable-background="new    " points="-69.494,72.5 -70.236,72.5 -21.895,112.5 
	-21.152,112.5 "/>
<polygon opacity="0.14" fill="#F2F2F2" enable-background="new    " points="-72.463,73.524 -72.463,74.139 -26.1,112.5 
	-25.355,112.5 "/>
<polygon opacity="0.14" fill="#F2F2F2" enable-background="new    " points="-72.463,77.002 -72.463,77.616 -30.305,112.5 
	-29.562,112.5 "/>
<polygon opacity="0.14" fill="#F2F2F2" enable-background="new    " points="-72.463,80.481 -72.463,81.095 -34.509,112.5 
	-33.766,112.5 "/>
<polygon opacity="0.14" fill="#F2F2F2" enable-background="new    " points="-72.463,83.96 -72.463,84.575 -38.713,112.499 
	-37.97,112.499 "/>
<polygon opacity="0.14" fill="#F2F2F2" enable-background="new    " points="-72.463,87.439 -72.463,88.054 -42.917,112.5 
	-42.175,112.5 "/>
<polygon opacity="0.14" fill="#F2F2F2" enable-background="new    " points="-72.463,90.917 -72.463,91.531 -47.122,112.5 
	-46.378,112.5 "/>
<polygon opacity="0.14" fill="#F2F2F2" enable-background="new    " points="-72.463,94.396 -72.463,95.014 -51.328,112.499 
	-50.583,112.499 "/>
<polygon opacity="0.14" fill="#F2F2F2" enable-background="new    " points="-72.463,97.875 -72.463,98.488 -55.53,112.5 
	-54.788,112.5 "/>
<polygon opacity="0.14" fill="#F2F2F2" enable-background="new    " points="-72.463,101.354 -72.463,101.969 -59.736,112.5 
	-58.993,112.5 "/>
<polygon opacity="0.14" fill="#F2F2F2" enable-background="new    " points="-72.463,104.832 -72.463,105.445 -63.938,112.5 
	-63.193,112.5 "/>
<polygon opacity="0.14" fill="#F2F2F2" enable-background="new    " points="-72.463,108.312 -72.463,108.927 -68.145,112.499 
	-67.402,112.499 "/>
<polygon opacity="0.14" fill="#F2F2F2" enable-background="new    " points="-72.463,111.791 -72.463,112.404 -72.35,112.5 
	-71.605,112.5 "/>
<polygon fill="#FFFFFF" points="90.902,78.77 96.023,78.77 106.062,92.232 96.023,105.693 90.902,105.693 100.941,92.232 "/>
<polygon fill="#FFFFFF" points="80.997,78.77 86.119,78.77 96.159,92.232 86.118,105.693 80.997,105.693 91.037,92.232 "/>
<rect x="71.568" y="72.5" fill="#F2F2F2" width="1.572" height="40"/>
<g>
	<path fill="#FFFFFF" d="M-53.164,94.555c0,0.652-0.129,1.199-0.387,1.641c-0.258,0.443-0.6,0.802-1.027,1.07
		c-0.426,0.269-0.91,0.461-1.455,0.58c-0.545,0.117-1.102,0.176-1.674,0.176h-4.746V86.108h4.746c0.459,0,0.932,0.048,1.414,0.143
		c0.482,0.096,0.92,0.258,1.312,0.488c0.392,0.23,0.711,0.541,0.959,0.934c0.246,0.393,0.369,0.892,0.369,1.498
		c0,0.662-0.181,1.209-0.537,1.641c-0.359,0.432-0.832,0.743-1.414,0.934v0.034c0.336,0.056,0.651,0.16,0.951,0.312
		c0.297,0.151,0.555,0.345,0.772,0.581c0.219,0.235,0.394,0.511,0.521,0.824C-53.229,93.809-53.164,94.162-53.164,94.555z
		 M-56.428,89.558c0-0.404-0.154-0.698-0.463-0.883c-0.31-0.185-0.767-0.278-1.371-0.278h-1.414v2.457h1.547
		c0.539,0,0.957-0.109,1.254-0.328C-56.578,90.307-56.428,89.984-56.428,89.558z M-56.041,94.287c0-0.494-0.186-0.836-0.555-1.027
		c-0.371-0.189-0.865-0.286-1.482-0.286h-1.598v2.725h1.615c0.225,0,0.457-0.02,0.699-0.059c0.239-0.039,0.459-0.109,0.655-0.211
		c0.195-0.101,0.354-0.244,0.479-0.429C-56.104,94.816-56.041,94.578-56.041,94.287z"/>
	<path fill="#FFFFFF" d="M-42.916,98.021l-0.926-2.338h-4.609l-0.875,2.338h-3.131l4.998-11.914h2.793l4.947,11.914H-42.916z
		 M-46.113,89.289l-1.514,4.089h2.996L-46.113,89.289z"/>
	<path fill="#FFFFFF" d="M-30.885,98.021l-4.795-7.791h-0.051l0.065,7.791h-2.793V86.108h3.281l4.778,7.774h0.051l-0.065-7.774
		h2.793v11.914H-30.885z"/>
	<path fill="#FFFFFF" d="M-17.623,98.021l-4.426-5.485h-0.033v5.485h-2.811V86.108h2.811v4.847h0.049l4.258-4.847h3.603
		l-5.134,5.486l5.437,6.427H-17.623z"/>
	<path fill="#FFFFFF" d="M4.438,98.021H1.594l-2.354-8.061h-0.052l-2.354,8.061h-2.86l-3.384-11.914h3.099l1.885,7.925h0.049
		l2.121-7.925h2.996l2.137,7.925h0.051l1.918-7.925H7.84L4.438,98.021z"/>
	<path fill="#FFFFFF" d="M9.334,98.021V86.108h2.895v11.914H9.334z"/>
	<path fill="#FFFFFF" d="M20.053,88.565v9.457h-2.877v-9.457h-3.365v-2.457h9.608v2.457H20.053z"/>
	<path fill="#FFFFFF" d="M32.521,98.021v-4.98h-4.645v4.98H25V86.108h2.877v4.51h4.645v-4.51H35.4v11.914H32.521z"/>
	<path fill="#FFFFFF" d="M52.337,95.49c-0.241,0.588-0.586,1.094-1.035,1.514c-0.448,0.42-0.989,0.748-1.624,0.984
		c-0.634,0.236-1.338,0.354-2.111,0.354c-0.786,0-1.492-0.117-2.121-0.354c-0.629-0.237-1.161-0.564-1.6-0.984
		c-0.438-0.42-0.773-0.926-1.01-1.514c-0.234-0.59-0.354-1.244-0.354-1.961v-7.421h2.86v7.186c0,0.325,0.042,0.634,0.126,0.925
		c0.084,0.293,0.213,0.553,0.387,0.783s0.404,0.412,0.69,0.547s0.631,0.201,1.035,0.201c0.403,0,0.749-0.066,1.035-0.201
		s0.519-0.316,0.698-0.547c0.179-0.23,0.308-0.49,0.387-0.783c0.079-0.291,0.117-0.6,0.117-0.925v-7.186h2.877v7.421
		C52.699,94.246,52.578,94.9,52.337,95.49z"/>
	<path fill="#FFFFFF" d="M61.583,89.205c-0.247-0.314-0.569-0.563-0.967-0.749c-0.398-0.185-0.783-0.278-1.153-0.278
		c-0.191,0-0.385,0.017-0.581,0.05c-0.196,0.034-0.373,0.099-0.53,0.194c-0.156,0.095-0.289,0.219-0.396,0.37
		s-0.16,0.345-0.16,0.581c0,0.202,0.042,0.37,0.126,0.505c0.084,0.135,0.208,0.252,0.371,0.354c0.162,0.101,0.355,0.193,0.581,0.277
		c0.224,0.084,0.478,0.171,0.757,0.261c0.404,0.135,0.825,0.284,1.262,0.446c0.438,0.162,0.836,0.378,1.195,0.648
		c0.359,0.269,0.656,0.603,0.893,1.001c0.234,0.398,0.353,0.895,0.353,1.488c0,0.685-0.126,1.275-0.378,1.775
		s-0.592,0.912-1.018,1.236c-0.428,0.326-0.916,0.566-1.465,0.725c-0.55,0.156-1.117,0.234-1.699,0.234
		c-0.854,0-1.678-0.148-2.475-0.445s-1.458-0.721-1.986-1.27l1.886-1.92c0.292,0.358,0.676,0.66,1.153,0.899
		c0.477,0.242,0.95,0.363,1.422,0.363c0.213,0,0.42-0.022,0.623-0.068c0.201-0.045,0.377-0.116,0.529-0.219
		c0.151-0.103,0.271-0.235,0.361-0.403c0.09-0.169,0.135-0.369,0.135-0.605c0-0.225-0.056-0.414-0.168-0.572
		c-0.111-0.156-0.271-0.301-0.48-0.43c-0.207-0.127-0.465-0.245-0.773-0.353c-0.309-0.106-0.659-0.221-1.052-0.345
		c-0.382-0.124-0.755-0.27-1.119-0.438c-0.365-0.168-0.69-0.384-0.976-0.648c-0.287-0.264-0.517-0.583-0.69-0.959
		c-0.174-0.375-0.261-0.833-0.261-1.371c0-0.662,0.135-1.229,0.404-1.7c0.27-0.471,0.623-0.858,1.06-1.161
		c0.438-0.303,0.931-0.524,1.481-0.665c0.549-0.141,1.104-0.21,1.666-0.21c0.672,0,1.359,0.124,2.062,0.37
		c0.7,0.247,1.315,0.612,1.843,1.094L61.583,89.205z"/>
</g>
</svg>
