<?xml version="1.0" encoding="utf-8"?>
<!-- Generator: Adobe Illustrator 15.0.0, SVG Export Plug-In . SVG Version: 6.00 Build 0)  -->
<!DOCTYPE svg PUBLIC "-//W3C//DTD SVG 1.1//EN" "http://www.w3.org/Graphics/SVG/1.1/DTD/svg11.dtd">
<svg version="1.1" id="Layer_1" xmlns="http://www.w3.org/2000/svg" xmlns:xlink="http://www.w3.org/1999/xlink" x="0px" y="0px"
	 width="247px" height="141px" viewBox="0 0 247 141" enable-background="new 0 0 247 141" xml:space="preserve">
<polygon fill="#FFFFFF" points="122.692,1.498 3.476,69.387 122.692,139.188 243.737,69.084 "/>
<g>
	<path fill="#B4975A" d="M122.737,135.908L9.199,69.431L122.735,4.778l115.279,64.367L122.737,135.908z M13.02,69.454
		l109.722,64.244l111.408-64.522L122.744,6.971L13.02,69.454z"/>
</g>
<g>
	<polygon fill="none" stroke="#B4975A" stroke-width="2" stroke-miterlimit="10" points="122.692,1.498 3.476,69.387 
		122.692,139.188 243.737,69.084 	"/>
</g>
<g>
	<g>
		<path fill="#B4975A" d="M113.239,42.975h-2.506v-1.179h6.34v1.179h-2.506v7.258h-1.328V42.975z"/>
		<path fill="#B4975A" d="M114.615,50.28h-1.422v-7.257h-2.506v-1.274h6.436v1.274h-2.507V50.28z M113.287,50.185h1.233v-7.258
			h2.505v-1.082h-6.244v1.082h2.506V50.185z"/>
	</g>
	<g>
		<path fill="#B4975A" d="M124.89,41.796h1.327v8.437h-1.327v-3.524h-4.046v3.524h-1.327v-8.437h1.327v3.734h4.046V41.796z"/>
		<path fill="#B4975A" d="M126.266,50.28h-1.425v-3.523h-3.949v3.523h-1.422v-8.531h1.422v3.734h3.949v-3.734h1.425V50.28z
			 M124.938,50.185h1.23v-8.34h-1.23v3.734h-4.141v-3.734h-1.232v8.34h1.232v-3.524l4.141,0V50.185z"/>
	</g>
	<g>
		<path fill="#B4975A" d="M129.279,41.796h5.371v1.179h-4.043v2.42h3.586v1.153h-3.586v2.506h4.217v1.179h-5.545V41.796z"/>
		<path fill="#B4975A" d="M134.873,50.28h-5.643v-8.531h5.468v1.274h-4.044v2.324h3.585v1.249h-3.585v2.411h4.219V50.28z
			 M129.327,50.185h5.451v-1.083h-4.22V46.5h3.587v-1.059h-3.587v-2.515h4.045v-1.082h-5.276V50.185z"/>
	</g>
</g>
<g>
	<g>
		<path fill="#B4975A" d="M38.947,74.975c-2.964,0-5.494-2.235-5.494-5.418c0-3.181,2.514-5.4,5.339-5.4
			c2.281,0,3.679,0.962,4.562,2.265l-2.126,1.444c-0.403-0.621-1.056-1.257-2.39-1.257c-1.552,0-2.499,1.289-2.499,2.948
			c0,1.661,0.978,2.965,2.591,2.965c1.367,0,2.035-0.62,2.484-1.459l2.172,1.397C42.547,74.214,41.088,74.975,38.947,74.975z"/>
	</g>
	<g>
		<path fill="#B4975A" d="M44.938,69.557c0-3.181,2.624-5.4,5.666-5.4c3.042,0,5.665,2.22,5.665,5.4
			c0,3.183-2.623,5.418-5.665,5.418C47.562,74.975,44.938,72.739,44.938,69.557z M53.379,69.557c0-1.66-1.007-2.948-2.776-2.948
			c-1.77,0-2.778,1.289-2.778,2.948c0,1.661,1.009,2.965,2.778,2.965C52.372,72.521,53.379,71.218,53.379,69.557z"/>
	</g>
	<g>
		<path fill="#B4975A" d="M58.705,64.172c0.015-0.108,0.079-0.093,0.141-0.016l5.059,5.681l4.982-5.681
			c0.063-0.077,0.125-0.093,0.139,0.016l0.622,10.661h-2.777l-0.249-4.5l-2.639,3.058c-0.046,0.047-0.093,0.047-0.14,0l-2.746-3.073
			l-0.249,4.515h-2.762L58.705,64.172z"/>
	</g>
	<g>
		<path fill="#B4975A" d="M72.317,64.172c0.016-0.108,0.077-0.093,0.14-0.016l5.059,5.681l4.983-5.681
			c0.062-0.077,0.125-0.093,0.14,0.016l0.62,10.661H80.48l-0.248-4.5l-2.639,3.058c-0.047,0.047-0.094,0.047-0.14,0l-2.747-3.073
			l-0.249,4.515h-2.762L72.317,64.172z"/>
	</g>
	<g>
		<path fill="#B4975A" d="M85.48,70.751V64.28h2.824v6.442c0,1.194,0.559,1.877,1.753,1.877c1.195,0,1.753-0.684,1.753-1.877V64.28
			h2.825v6.471c0,2.841-1.94,4.239-4.579,4.239C87.42,74.99,85.48,73.593,85.48,70.751z"/>
	</g>
	<g>
		<path fill="#B4975A" d="M99.79,69.573v5.26h-2.654V64.141c0-0.093,0.046-0.171,0.217-0.032l6.627,5.463V64.28h2.654v10.71
			c0,0.123-0.048,0.171-0.218,0.029L99.79,69.573z"/>
	</g>
	<g>
		<path fill="#B4975A" d="M109.305,64.28h2.825v10.553h-2.825V64.28z"/>
	</g>
	<g>
		<path fill="#B4975A" d="M117.034,66.654h-2.793V64.28h8.411v2.374h-2.793v8.179h-2.825V66.654z"/>
	</g>
	<g>
		<path fill="#B4975A" d="M123.692,64.28h3.104l2.079,3.865l2.08-3.865h2.964l-3.677,6.394v4.159h-2.825v-4.082L123.692,64.28z"/>
	</g>
	<g>
		<path fill="#B4975A" d="M140.393,64.172c0.016-0.108,0.077-0.093,0.142-0.016l5.06,5.68l4.981-5.68
			c0.061-0.077,0.124-0.093,0.139,0.016l0.621,10.661h-2.778l-0.248-4.5l-2.639,3.058c-0.048,0.047-0.093,0.047-0.139,0
			l-2.748-3.073l-0.248,4.515h-2.762L140.393,64.172z"/>
	</g>
	<g>
		<path fill="#B4975A" d="M159.779,73.561h-3.68l-0.526,1.272h-2.763l5.138-10.739c0.046-0.108,0.137-0.108,0.187,0l5.12,10.739
			h-2.917L159.779,73.561z M156.97,71.514h1.911l-0.963-2.236L156.97,71.514z"/>
	</g>
	<g>
		<path fill="#B4975A" d="M167.244,66.654h-2.791V64.28h8.41v2.374h-2.793v8.179h-2.826V66.654z"/>
	</g>
	<g>
		<path fill="#B4975A" d="M177.147,66.654h-2.793V64.28h8.411v2.374h-2.794v8.179h-2.824V66.654z"/>
	</g>
	<g>
		<path fill="#B4975A" d="M184.816,64.28h7.401v2.374h-4.577v1.738h3.816v2.251h-3.816v1.816h4.795v2.373h-7.619V64.28z"/>
	</g>
	<g>
		<path fill="#B4975A" d="M197.401,74.833h-2.823V64.28h4.268c2.686,0,4.176,1.584,4.176,3.74c0,1.398-0.667,2.499-1.926,3.072
			l2.189,3.74h-3.059l-1.861-3.303h-0.964V74.833z M198.706,69.371c0.964,0,1.474-0.481,1.474-1.351c0-0.869-0.51-1.351-1.474-1.351
			h-1.305v2.701H198.706z"/>
	</g>
	<g>
		<path fill="#B4975A" d="M204.542,73.034l2.051-1.537c0.511,0.638,1.148,1.148,2.202,1.148c0.84,0,1.335-0.247,1.335-0.838
			c0-0.45-0.342-0.667-1.038-0.9l-1.243-0.419c-1.537-0.512-2.622-1.444-2.622-3.181c0-2.079,1.724-3.151,3.599-3.151
			c1.864,0,2.98,0.667,3.601,1.396l-1.613,1.691c-0.434-0.45-0.991-0.76-1.831-0.76c-0.681,0-1.024,0.311-1.024,0.73
			c0,0.404,0.233,0.605,0.745,0.775l1.397,0.467c2.109,0.697,2.823,1.706,2.823,3.197c0,1.939-1.209,3.337-4.004,3.337
			C206.546,74.99,205.194,73.901,204.542,73.034z"/>
	</g>
</g>
<g>
	<g>
		<path fill="#B4975A" d="M102.255,95.003c0.383,0.73,1.042,1.142,1.911,1.142c0.893,0,1.489-0.423,1.489-1.104
			c0-0.793-0.609-1.094-1.353-1.428l-0.583-0.262c-1.24-0.545-2.096-1.165-2.096-2.48c0-1.29,0.98-2.196,2.419-2.196
			c1.166,0,1.947,0.435,2.48,1.328l-1.004,0.656c-0.323-0.546-0.782-0.816-1.452-0.816c-0.72,0-1.154,0.396-1.154,0.979
			c0,0.669,0.422,0.905,1.34,1.316l0.583,0.259c1.278,0.57,2.133,1.177,2.133,2.606c0,1.55-1.19,2.33-2.791,2.33
			c-1.439,0-2.469-0.694-3.04-1.772L102.255,95.003z"/>
		<path fill="#B4975A" d="M104.178,97.383c-1.374,0-2.468-0.641-3.082-1.8l-0.023-0.042l1.202-0.603l0.021,0.041
			c0.384,0.73,1.029,1.116,1.869,1.116c0.875,0,1.441-0.416,1.441-1.056c0-0.735-0.524-1.023-1.325-1.383l-0.582-0.261
			c-1.277-0.562-2.125-1.208-2.125-2.526c0-1.322,1.015-2.243,2.467-2.243c1.17,0,1.971,0.431,2.521,1.351l0.023,0.04l-1.084,0.71
			l-0.025-0.044c-0.321-0.542-0.769-0.795-1.41-0.795c-0.673,0-1.106,0.366-1.106,0.933c0,0.628,0.359,0.847,1.311,1.271
			l0.583,0.261c1.369,0.612,2.162,1.241,2.162,2.65C107.018,96.469,105.929,97.383,104.178,97.383z M101.204,95.581
			c0.601,1.102,1.655,1.707,2.975,1.707c1.693,0,2.744-0.876,2.744-2.285c0-1.356-0.772-1.969-2.106-2.562l-0.583-0.263
			c-0.9-0.399-1.369-0.641-1.369-1.356c0-0.624,0.471-1.027,1.203-1.027c0.661,0,1.129,0.254,1.466,0.8l0.924-0.606
			c-0.53-0.865-1.299-1.267-2.416-1.267c-1.397,0-2.373,0.885-2.373,2.149c0,1.273,0.792,1.875,2.069,2.438l0.583,0.258
			c0.71,0.321,1.381,0.624,1.381,1.474c0,0.699-0.604,1.15-1.537,1.15c-0.86,0-1.528-0.39-1.932-1.124L101.204,95.581z"/>
	</g>
	<g>
		<path fill="#B4975A" d="M109.599,88.786h5.372v1.178h-4.044v2.421h3.585v1.152h-3.585v2.507h4.219v1.179h-5.547V88.786z"/>
		<path fill="#B4975A" d="M115.192,97.271h-5.642v-8.533h5.468v1.275h-4.045v2.324h3.585v1.248h-3.585v2.411h4.218V97.271z
			 M109.646,97.175h5.45v-1.084h-4.218v-2.6h3.585v-1.06h-3.585v-2.515h4.045v-1.082h-5.277V97.175z"/>
	</g>
	<g>
		<path fill="#B4975A" d="M119.25,97.223h-1.328v-8.437h2.705c1.973,0,3.103,1.08,3.103,2.68c0,1.178-0.585,2.023-1.637,2.407
			l2.033,3.349h-1.45l-1.886-3.112h-0.162h-1.377V97.223z M120.577,92.967c1.253,0,1.775-0.496,1.775-1.501
			c0-1.018-0.534-1.502-1.775-1.502h-1.327v3.003H120.577z"/>
		<path fill="#B4975A" d="M124.211,97.271h-1.564l-1.886-3.115h-1.463v3.115h-1.423v-8.533h2.751c1.943,0,3.149,1.047,3.149,2.729
			c0,1.168-0.571,2.029-1.615,2.433L124.211,97.271z M122.701,97.175h1.341l-2.022-3.326l0.056-0.021
			c1.036-0.379,1.605-1.219,1.605-2.362c0-1.622-1.17-2.631-3.054-2.631h-2.656v8.34h1.231v-3.114h1.614L122.701,97.175z
			 M120.577,93.014h-1.375v-3.097h1.375c1.243,0,1.822,0.492,1.822,1.549C122.399,92.524,121.82,93.014,120.577,93.014z
			 M119.298,92.919h1.279c1.195,0,1.727-0.447,1.727-1.453s-0.532-1.453-1.727-1.453h-1.279V92.919z"/>
	</g>
	<g>
		<path fill="#B4975A" d="M126.607,88.786h1.327v8.436h-1.327V88.786z"/>
		<path fill="#B4975A" d="M127.982,97.271h-1.424v-8.533h1.424V97.271z M126.653,97.175h1.231v-8.34h-1.231V97.175z"/>
	</g>
	<g>
		<path fill="#B4975A" d="M131.036,88.786h5.372v1.178h-4.046v2.421h3.585v1.152h-3.585v2.507h4.219v1.178h-5.545V88.786z"/>
		<path fill="#B4975A" d="M136.629,97.271h-5.642v-8.533h5.467v1.275h-4.042v2.324h3.583v1.247h-3.583v2.412h4.217V97.271z
			 M131.084,97.175h5.449v-1.084h-4.219v-2.6h3.585v-1.06h-3.585v-2.515h4.044v-1.082h-5.274V97.175z"/>
	</g>
	<g>
		<path fill="#B4975A" d="M139.83,95.003c0.385,0.73,1.042,1.142,1.911,1.142c0.894,0,1.489-0.423,1.489-1.104
			c0-0.793-0.607-1.094-1.353-1.428l-0.584-0.262c-1.239-0.545-2.095-1.165-2.095-2.48c0-1.291,0.98-2.196,2.416-2.196
			c1.168,0,1.949,0.435,2.482,1.328l-1.003,0.656c-0.325-0.546-0.782-0.816-1.453-0.816c-0.72,0-1.155,0.396-1.155,0.979
			c0,0.669,0.424,0.905,1.341,1.316l0.583,0.259c1.28,0.57,2.135,1.177,2.135,2.606c0,1.55-1.192,2.33-2.792,2.33
			c-1.438,0-2.469-0.694-3.039-1.772L139.83,95.003z"/>
		<path fill="#B4975A" d="M141.753,97.383c-1.373,0-2.468-0.641-3.083-1.8l-0.021-0.042l1.201-0.602l0.021,0.04
			c0.384,0.73,1.03,1.116,1.869,1.116c0.876,0,1.44-0.416,1.44-1.056c0-0.735-0.523-1.023-1.325-1.383l-0.582-0.261
			c-1.275-0.562-2.125-1.208-2.125-2.526c0-1.322,1.017-2.243,2.466-2.243c1.172,0,1.973,0.431,2.524,1.351l0.021,0.04l-1.082,0.71
			l-0.027-0.044c-0.319-0.542-0.768-0.795-1.41-0.795c-0.672,0-1.105,0.366-1.105,0.933c0,0.628,0.357,0.847,1.311,1.271
			l0.583,0.261c1.369,0.612,2.164,1.241,2.164,2.65C144.594,96.469,143.505,97.383,141.753,97.383z M138.779,95.581
			c0.6,1.102,1.654,1.707,2.974,1.707c1.693,0,2.744-0.876,2.744-2.285c0-1.356-0.772-1.969-2.104-2.562l-0.584-0.263
			c-0.9-0.399-1.368-0.641-1.368-1.356c0-0.624,0.472-1.027,1.201-1.027c0.662,0,1.128,0.254,1.467,0.8l0.926-0.606
			c-0.531-0.864-1.3-1.267-2.419-1.267c-1.395,0-2.369,0.885-2.369,2.149c0,1.273,0.791,1.875,2.067,2.438l0.584,0.258
			c0.71,0.321,1.381,0.623,1.381,1.474c0,0.699-0.604,1.15-1.537,1.15c-0.861,0-1.528-0.39-1.931-1.124L138.779,95.581z"/>
	</g>
</g>
<g>
	<rect x="59.09" y="57.921" fill="#B4975A" width="128.941" height="0.764"/>
</g>
<g>
	<rect x="59.09" y="80.476" fill="#B4975A" width="128.941" height="0.766"/>
</g>
</svg>
