<?xml version="1.0" encoding="utf-8"?>
<!-- Generator: Adobe Illustrator 16.0.0, SVG Export Plug-In . SVG Version: 6.00 Build 0)  -->
<!DOCTYPE svg PUBLIC "-//W3C//DTD SVG 1.1//EN" "http://www.w3.org/Graphics/SVG/1.1/DTD/svg11.dtd">
<svg version="1.1" id="Layer_1" xmlns="http://www.w3.org/2000/svg" xmlns:xlink="http://www.w3.org/1999/xlink" x="0px" y="0px"
	 width="31px" height="48px" viewBox="0 0 31 48" enable-background="new 0 0 31 48" xml:space="preserve">
<image overflow="visible" enable-background="new    " width="31" height="49" xlink:href="1CEB9D8572FFF96B.jpeg"  transform="matrix(1 0 0 0.9796 0 0)">
</image>
<rect fill="#B35B3F" width="31" height="48"/>
<polygon fill="#FFFFFF" points="5.926,16.665 5.926,13.025 15.492,5.891 25.061,13.025 25.061,16.665 15.492,9.53 "/>
<image overflow="visible" enable-background="new    " width="31" height="49" xlink:href="1CEB9D8572FFF969.jpeg"  transform="matrix(1 0 0 0.9796 0 0)">
</image>
<rect fill="#B35B3F" width="31" height="48"/>
<polygon fill="#FFFFFF" points="5.926,14.498 5.926,10.858 15.492,3.724 25.061,10.858 25.061,14.498 15.492,7.363 "/>
<rect x="5.289" y="33.366" fill="#FFFFFF" width="20.46" height="1.763"/>
<rect x="5.289" y="37.533" fill="#FFFFFF" width="20.46" height="1.764"/>
<rect x="5.289" y="41.702" fill="#FFFFFF" width="20.46" height="1.764"/>
</svg>
